#!OML:ASF H:\Not Pregnant\Project 1\Capture day 1\Session 1\non-pregnant.ASF
:FULLY-SPECIFIED
:DEGREES
522
root 6.53312 16.2096 -11.8803 -171.915 -44.8896 -179.397
lowerback -0.0381504 3.20432 3.44247
upperback -6.13806 4.10251 -1.94643
thorax -5.97176 1.70985 -4.14236
lowerneck -2.42827 -0.53712 -27.6594
upperneck 12.6092 -4.45438 35.3923
head 5.34029 -2.50379 18.3095
rclavicle -4.72114e-016 1.55052e-014
rhumerus -39.1727 -9.86854 -80.9842
rradius 28.3545
rwrist 13.5296
rhand -12.5936 -5.90089
rfingers 7.12502
rthumb -166.515 144.556
lclavicle -4.72114e-016 1.55052e-014
lhumerus -38.0636 -15.3208 96.127
lradius 49.2354
lwrist 40.104
lhand -14.8163 -13.5589
lfingers 7.12502
lthumb 11.3419 16.1144
rfemur -36.0447 10.8957 9.89192
rtibia 50.4457
rfoot -21.5387 3.64147
rtoes -36.2381
lfemur -25.8036 -4.675 -26.6293
ltibia 37.3224
lfoot -17.967 -7.09543
ltoes -4.28063
523
root 6.53226 16.2161 -11.9677 -171.822 -46.4662 -179.352
lowerback -0.0927087 3.08726 3.36339
upperback -6.17057 3.94304 -1.91092
thorax -5.99727 1.63454 -4.05306
lowerneck -2.19345 -0.665768 -27.7067
upperneck 12.2835 -4.61572 35.4279
head 5.26873 -2.59673 18.3057
rclavicle -4.97707e-014 5.1684e-015
rhumerus -39.2535 -9.27113 -80.8375
rradius 28.352
rwrist 13.776
rhand -12.8059 -5.84962
rfingers 7.12502
rthumb -166.72 144.593
lclavicle -4.97707e-014 5.1684e-015
lhumerus -38.1205 -16.0608 96.6661
lradius 49.2512
lwrist 40.0519
lhand -14.6514 -13.5513
lfingers 7.12502
lthumb 11.5009 16.1132
rfemur -36.1764 12.018 8.92885
rtibia 48.4376
rfoot -21.991 4.7991
rtoes -36.0957
lfemur -25.6945 -5.29685 -26.3265
ltibia 37.2488
lfoot -18.1928 -7.97267
ltoes -3.67421
524
root 6.53024 16.2236 -12.0564 -171.701 -48.0531 -179.315
lowerback -0.208807 2.97398 3.26012
upperback -6.18671 3.78665 -1.86587
thorax -5.97108 1.56425 -3.93596
lowerneck -1.97697 -0.805323 -27.7793
upperneck 11.9446 -4.7821 35.4655
head 5.20071 -2.69139 18.3089
rclavicle -1.02548e-013 8.74653e-015
rhumerus -39.3137 -8.65894 -80.691
rradius 28.3355
rwrist 14.0266
rhand -13.092 -5.87515
rfingers 7.12502
rthumb -166.996 144.55
lclavicle -1.02548e-013 8.74653e-015
lhumerus -38.1568 -16.8152 97.2108
lradius 49.2409
lwrist 39.9976
lhand -14.4931 -13.5286
lfingers 7.12502
lthumb 11.6536 16.1273
rfemur -36.2938 13.2248 7.88933
rtibia 46.3772
rfoot -22.47 6.28577
rtoes -36.0127
lfemur -25.6054 -5.92146 -26.0165
ltibia 37.1441
lfoot -18.3918 -8.8786
ltoes -2.98819
525
root 6.5268 16.2321 -12.1457 -171.539 -49.6435 -179.304
lowerback -0.373763 2.8665 3.13407
upperback -6.19391 3.63606 -1.81875
thorax -5.90743 1.49918 -3.80134
lowerneck -1.76743 -0.952258 -27.8767
upperneck 11.5955 -4.95308 35.5066
head 5.13454 -2.78863 18.32
rclavicle 4.52235e-014 1.51076e-014
rhumerus -39.3748 -8.07597 -80.5249
rradius 28.3099
rwrist 14.3282
rhand -13.4169 -5.95666
rfingers 7.12502
rthumb -167.309 144.449
lclavicle 4.52235e-014 1.51076e-014
lhumerus -38.1814 -17.5706 97.7553
lradius 49.1959
lwrist 39.9256
lhand -14.3444 -13.4875
lfingers 7.12502
lthumb 11.797 16.1603
rfemur -36.4121 14.518 6.75907
rtibia 44.3034
rfoot -22.9447 8.10005
rtoes -35.8668
lfemur -25.5333 -6.54024 -25.7127
ltibia 37.0075
lfoot -18.5617 -9.81415
ltoes -2.26708
526
root 6.52112 16.2414 -12.2355 -171.362 -51.2254 -179.305
lowerback -0.571866 2.77785 3.01282
upperback -6.19485 3.51005 -1.77806
thorax -5.81459 1.44665 -3.67546
lowerneck -1.53811 -1.10682 -27.9848
upperneck 11.2204 -5.13339 35.5481
head 5.06182 -2.89239 18.3317
rclavicle 3.15571e-015 -9.54166e-015
rhumerus -39.4524 -7.56599 -80.325
rradius 28.2623
rwrist 14.6848
rhand -13.7725 -6.07272
rfingers 7.12502
rthumb -167.652 144.312
lclavicle 3.15571e-015 -9.54166e-015
lhumerus -38.2075 -18.3251 98.2913
lradius 49.1013
lwrist 39.8024
lhand -14.1549 -13.4537
lfingers 7.12502
lthumb 11.9798 16.1835
rfemur -36.5281 15.9028 5.55584
rtibia 42.2566
rfoot -23.3598 10.2175
rtoes -35.5472
lfemur -25.4618 -7.14366 -25.4087
ltibia 36.8442
lfoot -18.7052 -10.7709
ltoes -1.52474
527
root 6.5133 16.2508 -12.3245 -171.129 -52.807 -179.363
lowerback -0.782571 2.70598 2.89861
upperback -6.1982 3.40547 -1.76058
thorax -5.71311 1.40362 -3.57852
lowerneck -1.29572 -1.27269 -28.1122
upperneck 10.8284 -5.32923 35.592
head 4.98933 -3.00574 18.3483
rclavicle -4.47762e-014 2.06736e-014
rhumerus -39.553 -7.14588 -80.0881
rradius 28.1871
rwrist 15.0967
rhand -14.1466 -6.2076
rfingers 7.12502
rthumb -168.012 144.156
lclavicle -4.47762e-014 2.06736e-014
lhumerus -38.249 -19.0876 98.8115
lradius 48.9676
lwrist 39.6439
lhand -13.9182 -13.4193
lfingers 7.12502
lthumb 12.208 16.2044
rfemur -36.6595 17.3374 4.25875
rtibia 40.2865
rfoot -23.6266 12.6454
rtoes -34.8813
lfemur -25.3987 -7.7377 -25.1373
ltibia 36.6616
lfoot -18.8226 -11.7463
ltoes -0.823918
528
root 6.50386 16.26 -12.413 -170.868 -54.3745 -179.452
lowerback -0.996359 2.65218 2.80145
upperback -6.20869 3.32453 -1.76465
thorax -5.6132 1.37036 -3.51495
lowerneck -1.01852 -1.4375 -28.2359
upperneck 10.4174 -5.52943 35.6363
head 4.90675 -3.12422 18.3627
rclavicle -9.61994e-014 -3.97569e-015
rhumerus -39.6881 -6.8218 -79.8237
rradius 28.0825
rwrist 15.5606
rhand -14.5284 -6.34673
rfingers 7.12502
rthumb -168.38 143.995
lclavicle -9.61994e-014 -3.97569e-015
lhumerus -38.331 -19.8568 99.3016
lradius 48.8122
lwrist 39.4602
lhand -13.6374 -13.3812
lfingers 7.12502
lthumb 12.4788 16.2263
rfemur -36.8132 18.8252 2.90483
rtibia 38.4327
rfoot -23.6338 15.3557
rtoes -33.7416
lfemur -25.3429 -8.30557 -24.877
ltibia 36.4734
lfoot -18.9258 -12.7359
ltoes -0.15542
529
root 6.49385 16.2684 -12.5013 -170.577 -55.9297 -179.577
lowerback -1.20998 2.60509 2.7037
upperback -6.22522 3.25204 -1.78283
thorax -5.51828 1.34041 -3.46666
lowerneck -0.720406 -1.59394 -28.3606
upperneck 10.0044 -5.72382 35.6834
head 4.81788 -3.24197 18.3798
rclavicle 6.10766e-014 2.5842e-014
rhumerus -39.8436 -6.57559 -79.5421
rradius 27.943
rwrist 16.0625
rhand -14.8926 -6.4782
rfingers 7.12502
rthumb -168.732 143.844
lclavicle 6.10766e-014 2.5842e-014
lhumerus -38.439 -20.6073 99.7512
lradius 48.6268
lwrist 39.2617
lhand -13.3448 -13.3351
lfingers 7.12502
lthumb 12.7608 16.2549
rfemur -36.9974 20.338 1.51548
rtibia 36.7317
rfoot -23.2601 18.3239
rtoes -32.013
lfemur -25.3022 -8.86353 -24.6238
ltibia 36.2945
lfoot -19.0177 -13.7199
ltoes 0.479535
530
root 6.4826 16.2753 -12.59 -170.3 -57.4393 -179.712
lowerback -1.42322 2.57153 2.60748
upperback -6.22883 3.19908 -1.80087
thorax -5.40825 1.32088 -3.41957
lowerneck -0.412387 -1.74273 -28.4936
upperneck 9.58769 -5.9081 35.7293
head 4.72295 -3.35579 18.3994
rclavicle -3.89494e-014 1.15295e-014
rhumerus -39.9971 -6.37587 -79.2467
rradius 27.766
rwrist 16.57
rhand -15.2456 -6.60357
rfingers 7.12502
rthumb -169.072 143.701
lclavicle -3.89494e-014 1.15295e-014
lhumerus -38.5499 -21.3209 100.16
lradius 48.413
lwrist 39.0623
lhand -13.0567 -13.274
lfingers 7.12502
lthumb 13.0386 16.2985
rfemur -37.1941 21.8731 0.141712
rtibia 35.2053
rfoot -22.4141 21.4845
rtoes -29.6616
lfemur -25.2523 -9.3832 -24.3672
ltibia 36.1436
lfoot -19.1243 -14.6829
ltoes 1.0636
531
root 6.47072 16.2802 -12.6792 -170.055 -58.9081 -179.843
lowerback -1.6194 2.55849 2.52459
upperback -6.22607 3.17512 -1.82563
thorax -5.29803 1.31522 -3.38855
lowerneck -0.071959 -1.88356 -28.6348
upperneck 9.16176 -6.08971 35.7851
head 4.61927 -3.47177 18.4274
rclavicle -3.64273e-014 1.11319e-014
rhumerus -40.1647 -6.25266 -78.9322
rradius 27.5541
rwrist 17.0742
rhand -15.5443 -6.70917
rfingers 7.12502
rthumb -169.36 143.58
lclavicle -3.64273e-014 1.11319e-014
lhumerus -38.6727 -22.0179 100.534
lradius 48.1611
lwrist 38.8668
lhand -12.7818 -13.216
lfingers 7.12502
lthumb 13.3036 16.3394
rfemur -37.3962 23.3971 -1.17705
rtibia 33.8691
rfoot -21.0087 24.7442
rtoes -26.6591
lfemur -25.1957 -9.87223 -24.0986
ltibia 36.0344
lfoot -19.2493 -15.6252
ltoes 1.63531
532
root 6.45926 16.2826 -12.7688 -169.843 -60.3518 -179.963
lowerback -1.79436 2.5578 2.448
upperback -6.21588 3.1697 -1.84654
thorax -5.19066 1.31888 -3.35835
lowerneck 0.288393 -2.0173 -28.7901
upperneck 8.73195 -6.26659 35.8467
head 4.51021 -3.58777 18.4637
rclavicle -6.05921e-014 -9.93923e-015
rhumerus -40.332 -6.19266 -78.5926
rradius 27.3059
rwrist 17.5701
rhand -15.7731 -6.79294
rfingers 7.12502
rthumb -169.581 143.485
lclavicle -6.05921e-014 -9.93923e-015
lhumerus -38.7901 -22.6801 100.877
lradius 47.8648
lwrist 38.6716
lhand -12.5274 -13.1716
lfingers 7.12502
lthumb 13.5487 16.3676
rfemur -37.5959 24.8661 -2.4012
rtibia 32.7301
rfoot -19.0957 27.8966
rtoes -23.2167
lfemur -25.1487 -10.3425 -23.8109
ltibia 35.9769
lfoot -19.3877 -16.5615
ltoes 2.24485
